<?xml version="1.0" encoding="utf-8"?>
<!-- Generator: Adobe Illustrator 22.0.0, SVG Export Plug-In . SVG Version: 6.00 Build 0)  -->
<svg version="1.1" id="Camada_1" xmlns="http://www.w3.org/2000/svg" xmlns:xlink="http://www.w3.org/1999/xlink" x="0px" y="0px"
	 viewBox="0 0 29.4 29.4" style="enable-background:new 0 0 29.4 29.4;" xml:space="preserve">
<style type="text/css">
	.st0{fill:none;stroke:#A4A4A4;stroke-miterlimit:10;}
	.st1{fill:#A4A4A4;}
</style>
<path class="st0" d="M14.7,0.8c7.7,0,14,6.3,14,14c0,7.7-6.3,14-14,14c-7.7,0-14-6.3-14-14C0.7,7,7,0.7,14.7,0.8z"/>
<path class="st1" d="M13.4,17.3c0-0.7,0.1-1.3,0.3-1.7c0.2-0.4,0.5-0.9,1-1.3c0.5-0.4,0.8-0.8,0.9-1c0.2-0.3,0.2-0.5,0.2-0.8
	c0-0.9-0.4-1.3-1.2-1.3c-0.4,0-0.7,0.1-0.9,0.4c-0.2,0.2-0.3,0.6-0.4,1h-2.3c0-1,0.3-1.8,1-2.3c0.6-0.6,1.5-0.8,2.6-0.8
	c1.1,0,2,0.3,2.6,0.8c0.6,0.5,0.9,1.3,0.9,2.3c0,0.4-0.1,0.9-0.3,1.3c-0.2,0.4-0.5,0.8-1,1.3l-0.6,0.6c-0.4,0.4-0.6,0.8-0.7,1.3
	l0,0.5H13.4z M13.2,19.7c0-0.3,0.1-0.6,0.4-0.9c0.2-0.2,0.5-0.3,0.9-0.3c0.4,0,0.7,0.1,0.9,0.3c0.2,0.2,0.4,0.5,0.4,0.9
	c0,0.3-0.1,0.6-0.4,0.9c-0.2,0.2-0.5,0.3-0.9,0.3c-0.4,0-0.7-0.1-0.9-0.3C13.3,20.3,13.2,20,13.2,19.7z"/>
</svg>
