<svg width="74" height="67" viewBox="0 0 74 67" fill="none" xmlns="http://www.w3.org/2000/svg">
<path d="M0 53.9255C0.487357 52.4169 1.00683 50.992 1.96587 49.7817C2.18966 49.4993 2.35958 49.1268 2.64792 48.9522C3.39316 48.501 3.43032 47.8413 3.42922 47.0785C3.4145 36.8523 3.44457 26.626 3.40045 16.4C3.39067 14.135 5.18291 11.7086 7.50021 11.3149C7.82336 11.26 8.37511 11.4271 8.47552 10.8031C8.64263 9.76463 8.49524 9.19963 7.85474 8.86927C7.10183 8.48094 6.91259 7.79318 6.89845 7.05565C6.86596 5.36 6.87467 3.66309 6.89518 1.96705C6.90864 0.853899 7.69357 0.0282566 8.80012 0.0188152C11.7388 -0.00625847 14.678 -0.00628646 17.6167 0.0188196C18.8329 0.0292104 19.5567 0.828598 19.5607 2.06493C19.5662 3.73697 19.5463 5.40925 19.5683 7.08101C19.579 7.88802 19.252 8.53048 18.6016 8.91186C17.7478 9.41252 18.1982 10.1668 18.1419 10.8029C18.0898 11.392 18.7043 11.2399 19.0144 11.3186C21.0654 11.8388 22.3783 13.1053 22.939 15.1422C23.1596 15.9437 23.0069 16.7798 23.0264 17.5997C23.0469 18.465 23.031 19.3312 23.031 20.2331C24.3534 20.2707 25.6092 20.0387 26.805 20.5496C27.0292 20.6454 27.2472 20.4083 27.4407 20.2658C29.6609 18.6302 31.9357 18.651 34.2174 20.0981C34.6551 20.3757 34.8264 20.1267 35.0569 19.8958C36.5248 18.4254 38.031 16.9903 39.437 15.462C40.3698 14.4479 41.9148 14.3913 42.8212 15.4744C43.6204 16.4294 44.3231 17.4234 44.7958 18.5651C44.9905 19.0355 45.1716 19.0792 45.5922 18.8692C47.8947 17.7199 50.2727 17.5705 52.7158 18.3711C53.4045 18.5967 53.8141 19.0115 54.0339 19.7448C54.4409 21.1028 54.6743 22.4611 54.4748 23.8966C54.9663 24.0837 55.4489 23.9764 55.9189 23.9972C58.4909 24.1112 60.7618 26.0819 61.1793 28.8019C61.2463 29.2379 61.4163 29.3666 61.8212 29.3882C62.7095 29.4355 63.5734 29.6231 64.4187 29.9126C65.0105 30.1153 65.373 30.4891 65.5814 31.0865C66.1964 32.8492 66.2896 34.6234 65.7422 36.411C65.6035 36.8637 65.5769 37.1669 65.9876 37.5346C66.5434 38.0324 66.617 38.7908 66.5216 39.489C66.3423 40.8007 66.4295 42.1351 66.0921 43.5367C68.0244 43.7219 68.6641 45.2487 69.072 46.7301C69.6179 48.7128 67.7551 49.263 66.5286 50.2573C67.3761 50.3977 68.0799 50.0318 68.8154 49.9713C69.5265 49.9128 70.2277 49.724 70.9311 49.582C72.6773 49.2294 73.7416 50.1747 73.9159 51.7262C73.9266 51.8212 73.9567 51.914 73.9914 52.0602C74.0052 52.7461 74.0052 53.3796 73.9704 54.1148C73.4601 55.1567 72.5596 55.3335 71.6544 55.5031C70.2938 55.7581 68.9333 56.0144 67.5728 56.2701C68.29 56.5442 68.991 56.6988 69.6848 56.881C70.7364 57.1573 71.274 57.8886 71.3153 58.9813C71.3348 59.4965 71.2032 59.9863 71.165 60.49C71.0407 62.1293 69.8254 63.0347 68.2349 62.728C65.7468 62.2481 63.2516 61.8057 60.7594 61.3468C60.25 61.253 59.9907 61.4028 60.0249 61.9851C60.0786 62.9013 59.8329 63.7585 59.3385 64.5267C58.2068 66.2851 56.5445 67.0006 54.5092 67C40.16 66.9955 25.8108 66.9997 11.4616 66.9904C10.8178 66.9899 10.1662 66.9308 9.53155 66.8212C4.77907 66 0.952457 62.6174 0 57.7832C0 56.52 0 55.2569 0 53.9255ZM38.9713 19.5582C38.0865 20.2719 37.3219 21.1125 36.5253 21.9183C35.9425 22.5079 36.1361 23.4579 36.9187 23.7919C37.9322 24.2244 38.8462 24.7704 39.465 25.7232C39.7764 26.2027 40.1406 25.8834 40.4828 25.7723C40.7106 25.6983 40.8773 25.5224 40.8238 25.2817C40.7233 24.8297 40.3305 25.017 40.0458 24.9752C39.9986 24.9683 39.9496 24.975 39.9014 24.9747C39.0934 24.969 38.5906 24.5621 38.5598 23.8893C38.5315 23.2696 39.0713 22.6353 39.7674 22.5675C40.2664 22.5189 40.7872 22.5154 41.2766 22.6077C41.636 22.6755 41.822 22.575 41.9968 22.3099C42.2481 21.9289 42.4885 21.5392 42.7633 21.1759C42.9042 20.9898 42.9767 20.8434 42.9133 20.593C42.6002 19.3566 42.0035 18.2894 41.1283 17.3248C40.5388 17.8674 39.9788 18.3578 39.5003 19.0381C39.3556 19.1987 39.211 19.3593 38.9713 19.5582ZM30.1369 64.5658C31.4376 64.5653 32.7383 64.5615 34.0391 64.5662C34.5019 64.5678 34.6692 64.4364 34.5644 63.9072C34.3967 63.0607 34.223 62.2124 34.189 61.3365C34.1606 60.6039 34.6208 60.1733 35.2395 60.1014C35.8403 60.0316 36.3195 60.3389 36.4585 60.9834C36.6712 61.97 36.8912 62.9576 37.0349 63.9554C37.1028 64.4271 37.2918 64.5713 37.7287 64.5697C40.1134 64.5608 42.4982 64.5548 44.8827 64.5744C45.4437 64.579 45.5388 64.3253 45.4473 63.8527C45.3515 63.3577 45.2313 62.8609 45.2049 62.3604C45.1665 61.6289 45.5845 61.1337 46.1947 61.0829C46.9594 61.0193 47.4487 61.3759 47.5957 62.1252C47.7068 62.6914 47.8095 63.26 47.8925 63.831C47.965 64.3297 48.1582 64.6144 48.7301 64.5766C49.4016 64.5322 50.0797 64.5387 50.7523 64.5744C51.3288 64.605 51.4812 64.3481 51.3838 63.8308C51.2324 63.0269 51.0922 62.2209 50.9386 61.4174C50.7891 60.6349 51.1681 59.9624 51.8652 59.7935C52.4621 59.6489 53.0501 60.0132 53.2313 60.7615C53.4741 61.7642 53.6277 62.7887 53.8246 63.8029C53.8828 64.103 53.8756 64.4807 54.2685 64.5462C55.598 64.7682 57.153 63.8409 57.4859 62.746C57.7912 61.7419 57.5118 60.7871 57.3344 59.8214C56.7129 56.4395 56.0659 53.0622 55.4606 49.6773C55.1634 48.0156 53.6211 46.7168 51.5546 47.5461C49.0663 48.5447 46.5502 49.4736 44.0389 50.4128C43.5589 50.5923 43.5197 50.8829 43.6111 51.3212C43.7826 52.1439 44.0264 52.9564 43.9934 53.8137C43.9675 54.4837 43.6015 55.0131 43.0263 55.0379C42.4038 55.0647 41.893 54.8169 41.7094 54.152C41.6009 53.7596 41.5158 53.3591 41.446 52.9576C41.2107 51.6037 41.2087 51.5833 39.8885 52.0193C39.2915 52.2164 38.8057 52.1431 38.3999 51.6623C37.7787 50.9263 38.1437 50.0464 39.2481 49.6214C41.264 48.8455 43.2738 48.0528 45.3011 47.3081C47.3482 46.5561 49.3495 45.6796 51.4387 45.0416C53.8506 44.3051 56.4144 45.6782 57.2916 47.4601C57.419 47.7189 57.3783 48.1128 57.7957 48.2361C59.4938 47.2415 61.213 46.2345 62.9322 45.2275C63.2129 45.0631 63.3649 44.8504 63.4382 44.499C63.7188 43.1522 63.9523 41.8082 64.0122 40.4253C64.0581 39.3653 64.131 39.3669 63.0752 39.3663C60.7146 39.365 58.354 39.3747 55.9935 39.3602C55.1055 39.3547 54.5839 38.8755 54.5916 38.1442C54.5997 37.3618 55.0628 36.9613 55.9817 36.9419C56.9795 36.9209 57.0616 36.7981 56.7614 35.816C56.6321 35.3928 56.4231 35.0295 56.1256 34.696C55.6853 34.2023 55.1476 33.9497 54.5117 33.8219C53.9019 33.6994 53.3155 33.4563 53.2997 32.705C53.2856 32.0392 53.0592 31.4442 52.6901 30.9516C51.9165 29.9196 50.361 29.2627 49.1146 30.4187C49.9125 30.8696 50.3428 31.5402 50.3543 32.47C50.3625 33.1272 50.2507 33.77 50.1215 34.4035C49.9556 35.217 49.7068 36.0135 49.4858 36.8472C49.6575 36.8969 49.7706 36.9271 49.8822 36.9623C50.4864 37.1526 50.7885 37.5624 50.7791 38.2038C50.7689 38.8933 50.3074 39.1784 49.7411 39.3189C49.4439 39.3927 49.1192 39.365 48.8069 39.3651C37.7266 39.3671 26.6464 39.3669 15.5661 39.3675C15.3011 39.3675 15.0361 39.3692 14.7713 39.3765C14.5173 39.3835 14.3067 39.5094 14.3844 39.7734C14.6305 40.6093 14.3387 41.5177 14.7447 42.3262C15.9943 42.3072 16.1385 42.4414 16.4993 44.0146C18.1282 43.7169 19.7699 43.6682 21.3963 44.0733C22.5059 44.3496 23.601 44.7277 24.175 45.804C24.4083 46.2415 24.6842 46.542 25.0757 46.7633C26.7005 47.6818 27.9758 48.9542 28.9944 50.5187C29.4974 51.2911 29.8023 52.1491 30.1819 53.0611C31.1207 52.7171 32.0188 52.3978 32.9094 52.0587C33.6342 51.7828 34.3593 52.2456 34.5563 52.8106C34.762 53.4006 34.3932 54.0867 33.7064 54.3587C31.8789 55.0825 30.0519 55.8083 28.211 56.4964C27.7178 56.6808 27.5884 56.9378 27.713 57.4275C27.8491 57.9625 28.0012 58.5023 27.9391 59.067C27.8463 59.9118 27.0951 60.3316 26.3115 60.0295C25.5074 59.7196 25.5175 58.9704 25.4327 58.3424C25.3415 57.6661 25.0475 57.6749 24.5671 57.8591C23.7621 58.1676 22.9477 58.4533 22.1532 58.7869C21.5591 59.0364 20.9185 59.2033 20.4162 59.6411C19.5307 60.4128 19.2433 61.5381 19.6387 62.6523C20.048 63.8058 21.0402 64.553 22.2602 64.5605C24.8375 64.5764 27.4149 64.5656 30.1369 64.5658ZM10.19 21.0468C9.01026 21.0471 7.82952 21.0761 6.65108 21.0362C6.02025 21.0149 5.81632 21.2288 5.82063 21.8675C5.84515 25.5004 5.85053 29.1337 5.81631 32.7665C5.80969 33.4689 6.05805 33.6148 6.69412 33.608C9.39048 33.5792 12.0881 33.5585 14.7836 33.6162C15.7365 33.6367 16.1393 32.9042 16.7657 32.4718C16.9083 32.3733 16.8473 32.1613 16.818 31.9909C16.5528 30.4468 16.9652 29.053 17.9179 27.8676C18.5656 27.0617 19.3021 26.3704 19.0648 25.1885C19.0126 24.9287 19.1616 24.6242 19.2327 24.344C19.4433 23.5138 19.7922 22.7569 20.3953 22.1331C20.6183 21.9024 20.8198 21.6198 20.7079 21.2949C20.5843 20.9362 20.221 21.0649 19.9488 21.0495C19.4236 21.0197 18.8942 21.0915 18.3802 20.8937C17.76 20.6549 17.5349 20.1596 17.6238 19.5725C17.7093 19.0084 18.0614 18.6122 18.709 18.6207C19.1664 18.6267 19.625 18.6006 20.0811 18.6251C20.5683 18.6513 20.787 18.4744 20.772 17.9592C20.7544 17.3554 20.7148 16.76 20.6335 16.1589C20.444 14.758 19.3247 13.6495 17.9262 13.6409C14.7962 13.6216 11.6659 13.6205 8.53609 13.6467C7.62938 13.6542 6.91732 14.0617 6.35462 14.8383C5.67078 15.7821 5.89695 16.8232 5.82456 17.8438C5.78168 18.4482 6.00232 18.6406 6.60246 18.6318C8.64859 18.6015 10.6956 18.633 12.742 18.6149C13.4297 18.6088 13.7644 18.9924 13.899 19.5819C14.0673 20.3188 13.4227 20.9905 12.5011 21.0364C11.7805 21.0723 11.0568 21.0457 10.19 21.0468ZM6.12084 49.1857C5.96818 49.3029 5.81432 49.4186 5.66304 49.5376C3.90904 50.9174 2.69301 52.6772 2.39183 54.9039C1.84366 58.9567 4.38289 62.2896 7.63 63.6911C10.8503 65.081 14.2478 64.4849 17.5884 64.4956C17.6031 64.4956 17.618 64.4614 17.643 64.4306C17.6948 64.1796 17.5038 63.992 17.4296 63.7702C17.1523 62.9419 16.9439 62.0915 17.0391 61.2199C17.2877 58.9414 18.5935 57.5091 20.6859 56.7173C22.8849 55.8851 25.0682 55.0105 27.2716 54.1904C27.7683 54.0055 27.8081 53.7715 27.6461 53.3272C27.1096 51.8557 26.1809 50.6668 25.0103 49.6757C23.7265 48.5888 23.4928 48.5804 22.4204 49.2351C22.9845 51.3173 22.2182 52.293 20.0446 52.3154C18.5236 52.331 17.161 51.808 15.9006 51.0459C15.3687 50.7243 14.9987 50.7761 14.526 51.0411C13.6039 51.5581 12.658 52.0306 11.6065 52.2246C10.8217 52.3694 10.0106 52.4328 9.24937 52.2149C8.03457 51.8673 7.70691 51.0136 7.96936 49.2215C7.41151 48.6308 6.82366 48.6168 6.12084 49.1857ZM29.138 30.942C29.2438 30.8184 29.4195 30.7443 29.4194 30.5456C28.5327 29.9359 28.2744 29.4495 28.4966 28.8115C29.0251 27.2941 30.845 26.3993 32.4365 26.8512C33.2419 27.0799 33.8249 27.5475 34.2796 28.2557C34.7293 28.956 34.6184 29.6028 34.1542 30.27C34.8355 30.4817 35.4134 30.3574 35.9801 30.3951C36.3719 30.4212 36.5943 30.2842 36.6896 29.8596C36.7939 29.3949 36.9727 28.9511 37.228 28.5288C37.8213 27.5472 37.6724 27.0233 36.6706 26.4306C36.323 26.2249 35.9565 26.0569 35.5461 25.9642C34.3603 25.6963 34.2552 25.5204 34.0525 24.2748C33.8474 23.0143 33.1782 22.0687 31.9397 21.6739C30.6665 21.2681 29.5276 21.55 28.6109 22.5747C27.729 23.5606 27.3656 23.6474 26.1758 23.0258C24.9848 22.4036 23.8254 22.475 22.79 23.2617C21.6687 24.1137 21.2008 25.2749 21.5904 26.7126C21.8412 27.6382 21.7017 27.9704 20.8883 28.4395C19.9266 28.9942 19.407 29.8497 19.1611 30.9003C19.0156 31.5217 19.3458 32.4105 19.8196 32.7162C19.9224 32.4196 20.0499 32.1316 20.1212 31.8302C20.304 31.0579 20.8201 30.6444 21.5417 30.4485C23.8006 29.8351 25.9987 29.9198 28.0969 31.0571C28.4386 31.2423 28.7618 31.3583 29.138 30.942ZM10.1591 43.9129C10.6956 43.7319 11.2514 43.7725 11.8029 43.7738C12.128 43.7746 12.4467 43.6998 12.3566 43.307C12.0962 42.1717 12.1921 41.0018 11.99 39.8667C11.7296 38.4048 12.2474 37.3022 13.4646 36.972C13.8378 36.8708 14.1469 36.7543 14.0815 36.3392C14.0105 35.8882 13.5913 36.0379 13.3072 36.0363C11.1409 36.0238 8.97449 36.0271 6.80814 36.0275C5.83608 36.0276 5.83331 36.0298 5.83282 36.981C5.83142 39.7171 5.83245 42.4533 5.83253 45.1894C5.83254 45.546 5.83253 45.9026 5.83253 46.2591C6.76646 44.5441 8.34415 44.1354 10.1591 43.9129ZM64.8339 54.2442C67.0832 53.8345 69.3325 53.4247 71.6558 53.0016C71.4611 52.5494 71.6702 51.9341 70.9401 52.0651C68.7987 52.4491 66.6602 52.8496 64.5211 53.2463C63.3686 53.46 62.2208 53.7017 61.0642 53.8887C60.0899 54.0462 59.5123 53.6732 59.3915 52.8553C59.2878 52.1529 59.7988 51.8084 60.2716 51.4811C62.1482 50.1819 64.036 48.899 65.9211 47.6121C66.6782 47.0952 66.6937 46.9881 66.0361 46.2498C63.515 47.7496 60.9812 49.2582 58.4454 50.7633C58.2216 50.8961 58.2052 51.0462 58.2537 51.3033C58.6767 53.5483 59.0676 55.7995 59.4859 58.0455C59.5572 58.4285 59.7106 58.7048 60.2178 58.7806C61.7293 59.0063 63.2201 59.3729 64.7317 59.5983C66.0481 59.7946 67.338 60.1768 68.6663 60.2398C68.9794 59.1938 68.9693 59.1968 68.1204 59.0042C65.8098 58.4801 63.5032 57.9377 61.1935 57.4093C60.5493 57.262 60.0966 56.9741 60.0739 56.2193C60.0498 55.4184 60.5214 55.0966 61.1946 54.9575C62.3645 54.7157 63.5381 54.4923 64.8339 54.2442ZM47.1691 32.8255C43.5832 32.8255 39.9974 32.8255 36.4115 32.8254C34.8237 32.8254 33.2359 32.8226 31.6481 32.8269C31.3369 32.8277 30.9281 32.8019 31.0108 33.2795C31.2169 34.4697 31.5174 35.6344 32.2191 36.651C32.3385 36.824 32.468 36.9227 32.6835 36.9375C33.6146 37.0013 34.5187 37.0198 35.1347 36.1135C35.2811 35.898 35.4956 35.7228 35.6997 35.5547C36.4192 34.9618 37.4643 35.3601 37.6242 36.2796C37.6629 36.502 37.5341 36.7988 37.8484 36.9065C38.1428 37.0073 38.3323 36.8155 38.539 36.6303C39.1891 36.0479 39.7331 36.0572 40.3875 36.6301C40.914 37.0911 41.0203 37.0541 41.1543 36.3629C41.338 35.4155 42.1106 35.0304 42.9856 35.4402C43.3929 35.6309 43.7281 35.9342 43.9564 36.2885C44.5851 37.2644 45.5208 36.8831 46.3642 36.9117C46.549 36.918 46.6459 36.7408 46.7301 36.5932C47.3092 35.5772 47.6938 34.504 47.8164 33.3252C47.8694 32.8153 47.6318 32.8109 47.1691 32.8255ZM48.2764 27.845C49.2416 27.5139 50.1752 27.3263 50.8722 26.3131C51.9964 24.6787 52.3616 23.0356 51.9023 21.1433C51.814 20.7795 51.62 20.6385 51.2934 20.5371C50.349 20.2436 49.407 20.2717 48.4544 20.4753C46.3499 20.9251 44.8257 22.156 43.8211 24.033C43.5836 24.4766 43.2996 24.9633 43.4181 25.5256C44.638 26.0919 44.6394 26.0933 45.5634 25.1762C46.1452 24.5987 46.7144 24.0081 47.3037 23.4385C47.6657 23.0886 48.0872 22.8843 48.6071 23.0755C49.5601 23.4258 49.7398 24.3884 48.9783 25.2302C48.4611 25.8019 47.8927 26.3266 47.3537 26.8788C46.747 27.5004 46.7539 27.5984 47.4387 28.2959C47.6801 28.1712 47.9338 28.0401 48.2764 27.845ZM11.9248 6.69825C13.4418 6.69792 14.9589 6.68507 16.4756 6.70443C16.9689 6.71073 17.1697 6.53969 17.1566 6.03031C17.1311 5.03788 17.1372 4.04413 17.1539 3.05133C17.161 2.63067 17.0311 2.43217 16.5791 2.43462C14.3399 2.44676 12.1006 2.4434 9.86131 2.43353C9.4647 2.43178 9.29371 2.58166 9.29868 2.98856C9.31142 4.02993 9.31475 5.07177 9.29686 6.11299C9.28918 6.55929 9.4763 6.71444 9.90248 6.7012C10.5279 6.68176 11.1544 6.69744 11.9248 6.69825ZM11.4457 47.851C11.8358 48.6653 11.2836 49.2172 10.6894 49.8745C12.1035 49.5957 13.1742 49.0868 14.1409 48.3481C14.9491 47.7305 15.4051 47.722 16.2066 48.3064C16.4977 48.5186 16.7876 48.7366 17.0982 48.9167C17.7932 49.3197 18.5114 49.6679 19.3862 49.7405C18.5243 47.963 18.7469 47.5401 20.6484 47.0635C20.8897 47.0031 21.2379 47.0605 21.3992 46.7036C21.2722 46.63 21.178 46.5427 21.0696 46.5174C19.3582 46.1187 17.6585 46.0465 16.0001 46.7571C15.536 46.9559 15.0704 47.0192 14.6055 46.8094C13.8975 46.4897 13.1445 46.3331 12.3884 46.2429C11.2338 46.1052 10.1072 46.2697 8.83738 46.7756C9.33354 46.9225 9.62752 47.0156 9.92486 47.0963C10.4494 47.2385 11.033 47.2409 11.4457 47.851ZM28.3842 36.9178C28.7119 36.9186 29.0509 37.0279 29.4764 36.7557C29.0928 36.0815 29.1351 35.2272 28.6565 34.5897C27.4485 32.9809 24.6746 32.1247 22.7192 32.6852C22.5136 32.7442 22.3703 32.8289 22.3216 33.0466C22.0603 34.2131 21.9799 35.3696 22.4322 36.5171C22.5337 36.7747 22.6593 36.9433 22.9418 36.9343C23.4602 36.918 23.9866 37.0144 24.5129 36.8671C24.3951 36.3158 24.2141 35.7857 24.5463 35.301C25.0313 34.5934 25.8466 34.5797 26.6125 35.2721C27.1848 35.7895 27.7255 36.3422 28.3842 36.9178ZM56.1176 31.4176C56.8248 30.8295 57.5996 30.3443 58.4511 30.0089C58.8306 29.8594 58.8823 29.6928 58.8099 29.3073C58.3106 26.6498 55.3283 25.5166 53.2593 27.2133C52.8638 27.5377 52.8414 27.8864 53.2734 28.1465C54.4285 28.8422 55.1117 29.8695 55.4911 31.1389C55.5681 31.3962 55.6616 31.6816 56.1176 31.4176ZM63.6674 33.3664C63.4035 32.9558 63.6905 32.2767 62.9788 32.0722C61.3829 31.6137 59.9152 31.9703 58.5022 32.7175C58.2648 32.843 58.0505 33.0579 58.2656 33.3634C58.5367 33.7484 58.667 34.2328 59.0363 34.5384C60.1193 34.0819 60.7097 34.0532 61.069 34.4941C61.8506 35.4532 61.1299 36.1445 60.3919 36.9412C61.1584 36.9412 61.7061 36.9171 62.2507 36.9486C62.7062 36.975 62.9654 36.7902 63.122 36.3717C63.4701 35.4416 63.7451 34.5004 63.6674 33.3664ZM39.3498 29.8224C39.0799 30.3355 39.386 30.3952 39.7878 30.3947C41.5164 30.3923 43.2449 30.3951 44.9735 30.3926C45.137 30.3924 45.317 30.4145 45.4297 30.2184C45.4815 29.9411 45.315 29.7324 45.1674 29.5137C43.6965 27.3346 40.4609 27.5324 39.3498 29.8224ZM15.7032 9.64212C15.7347 9.20581 15.4806 9.12006 15.1131 9.12397C14.1507 9.13422 13.188 9.12727 12.2254 9.12567C10.822 9.12334 10.839 9.12227 10.8822 10.5708C10.8964 11.0449 11.0723 11.2159 11.5292 11.2074C12.4433 11.1903 13.3581 11.209 14.2725 11.2025C15.868 11.1913 15.6897 11.3891 15.7032 9.64212ZM18.8386 36.9413C18.9589 36.9412 19.0807 36.9532 19.1992 36.9384C19.4416 36.9082 19.7704 37.0558 19.8681 36.6876C19.9674 36.3135 19.6658 36.1893 19.4117 36.049C18.9877 35.815 18.6131 35.5176 18.2704 35.1742C18.1023 35.0058 17.9067 34.7889 17.6493 34.9881C17.0465 35.4547 16.6658 36.058 16.5365 36.8622C17.3133 37.005 18.01 36.9141 18.8386 36.9413ZM30.9297 29.4822C30.7979 29.7253 30.5861 29.9447 30.7098 30.3285C31.3146 30.4218 31.9258 30.4459 32.5693 30.3234C32.0827 29.1586 31.8266 29.0198 30.9297 29.4822Z" fill="#17744F"/>
</svg>
