<?xml version="1.0" encoding="utf-8"?>
<!-- Generator: Adobe Illustrator 22.0.0, SVG Export Plug-In . SVG Version: 6.00 Build 0)  -->
<svg version="1.1" id="Camada_1" xmlns="http://www.w3.org/2000/svg" xmlns:xlink="http://www.w3.org/1999/xlink" x="0px" y="0px"
	 viewBox="0 0 28 28" style="enable-background:new 0 0 28 28;" xml:space="preserve">
<style type="text/css">
	.st0{fill:#0C6B45;}
	.st1{fill:#FFFFFF;}
</style>
<path class="st0" d="M14,0c7.7,0,14,6.3,14,14c0,7.7-6.3,14-14,14C6.3,28,0,21.7,0,14C0,6.3,6.3,0,14,0z"/>
<path class="st1" d="M21.7,14.6c0-2.4-1.1-4.7-3.1-6.2c-0.6-0.4-1.4-0.3-1.8,0.3c-0.4,0.6-0.3,1.4,0.3,1.8c1.3,1,2.1,2.5,2.1,4.1
	c0,2.8-2.3,5.1-5.1,5.1s-5.1-2.3-5.1-5.1c0-1.6,0.8-3.1,2.1-4.1c0.6-0.4,0.7-1.2,0.3-1.8C10.7,8.1,9.9,8,9.4,8.4
	c-2,1.5-3.1,3.7-3.1,6.2c0,4.2,3.5,7.7,7.7,7.7C18.2,22.3,21.7,18.8,21.7,14.6z M15.3,6.9c0-0.7-0.6-1.3-1.3-1.3
	c-0.7,0-1.3,0.6-1.3,1.3v6.4c0,0.7,0.6,1.3,1.3,1.3c0.7,0,1.3-0.6,1.3-1.3V6.9z"/>
</svg>
