<?xml version="1.0" encoding="utf-8"?>
<!-- Generator: Adobe Illustrator 22.0.0, SVG Export Plug-In . SVG Version: 6.00 Build 0)  -->
<svg version="1.1" id="Camada_1" xmlns="http://www.w3.org/2000/svg" xmlns:xlink="http://www.w3.org/1999/xlink" x="0px" y="0px"
	 viewBox="0 0 28 28" style="enable-background:new 0 0 28 28;" xml:space="preserve">
<style type="text/css">
	.st0{fill:#198459;}
	.st1{fill:#FFFFFF;}
</style>
<path class="st0" d="M14,0c7.7,0,14,6.3,14,14c0,7.7-6.3,14-14,14C6.3,28,0,21.7,0,14C0,6.3,6.3,0,14,0z"/>
<path class="st1" d="M19.2,17.4c-1.2,1.6-3.1,2.7-5.2,2.7S9.9,19,8.8,17.4c0.2-1.6,0.9-3,2.3-3.1c0.7,0.8,1.8,1.3,3,1.3
	s2.2-0.5,3-1.3C18.4,14.4,19,15.8,19.2,17.4z M17.2,11.5c0,1.8-1.4,3.2-3.2,3.2s-3.2-1.4-3.2-3.2c0-1.8,1.4-3.2,3.2-3.2
	S17.2,9.7,17.2,11.5z M21.5,13.6c0-4.1-3.4-7.5-7.5-7.5c-4.1,0-7.5,3.4-7.5,7.5c0,4.1,3.4,7.5,7.5,7.5
	C18.2,21.1,21.5,17.8,21.5,13.6z"/>
</svg>
